<svg width="77" height="29" viewBox="0 0 77 29" fill="none" xmlns="http://www.w3.org/2000/svg">
<path d="M17.6671 6.88518L23.0675 4.31465L21.472 10.0745L21.3362 10.5646L21.8285 10.692L26.3982 11.8753L26.5235 11.9077L26.6489 11.8753L31.2186 10.692L31.7108 10.5646L31.5751 10.0745L29.9796 4.31465L35.38 6.88518L35.8387 7.10351L36.0497 6.64143L38.5331 1.20359L41.0166 6.64143L41.2276 7.10351L41.6863 6.88518L47.0867 4.31465L45.4912 10.0745L45.3555 10.5646L45.8477 10.692L50.4174 11.8753L50.5428 11.9077L50.6681 11.8753L55.2378 10.692L55.73 10.5646L55.5943 10.0745L53.9988 4.31465L59.3992 6.88518L59.8579 7.10351L60.0689 6.64143L62.5524 1.20359L65.0358 6.64143L65.2468 7.10351L65.7055 6.88518L71.1059 4.31465L69.5104 10.0745L69.3747 10.5646L69.8669 10.692L75.6567 12.1912L70.7295 15.5786L70.3103 15.8667L70.6056 16.2809L74.0763 21.1478L68.1221 20.578L67.6162 20.5295L67.576 21.0362L67.1037 26.9944L62.9087 22.7332L62.5524 22.3713L62.1961 22.7332L58.001 26.9944L57.5287 21.0362L57.4885 20.5295L56.9826 20.578L51.0285 21.1478L54.4991 16.2809L54.7944 15.8667L54.3753 15.5786L50.826 13.1385L50.5428 12.9438L50.2595 13.1385L46.7102 15.5786L46.2911 15.8667L46.5864 16.2809L50.057 21.1478L44.1029 20.578L43.597 20.5295L43.5568 21.0362L43.0845 26.9944L38.8895 22.7332L38.5331 22.3713L38.1768 22.7332L33.9818 26.9944L33.5095 21.0362L33.4693 20.5295L32.9634 20.578L27.0093 21.1478L30.4799 16.2809L30.7752 15.8667L30.3561 15.5786L26.8068 13.1385L26.5235 12.9438L26.2403 13.1385L22.691 15.5786L22.2719 15.8667L22.5672 16.2809L26.0378 21.1478L20.0837 20.578L19.5778 20.5295L19.5376 21.0362L19.0653 26.9944L14.8702 22.7332L14.5139 22.3713L14.1576 22.7332L9.96257 26.9944L9.49026 21.0362L9.45009 20.5295L8.94418 20.578L2.99001 21.1478L6.46066 16.2809L6.75599 15.8667L6.33682 15.5786L1.40962 12.1912L7.19935 10.692L7.69161 10.5646L7.55586 10.0745L5.96035 4.31465L11.3608 6.88518L11.8195 7.10351L12.0305 6.64143L14.5139 1.20359L16.9974 6.64143L17.2084 7.10351L17.6671 6.88518ZM50.4544 21.7051L50.1714 21.7322L50.0472 21.744L50.0427 21.7912L49.9849 21.75L49.9746 21.6422L49.8119 21.6266L49.4814 21.595L50.4544 21.7051Z" stroke="white"/>
</svg>
